# xmcd
#
# Track frame offsets:
#	150
#	19480
#	35227
#	56307
#	70075
#	80232
#	97105
#	113490
#	127295
#	147675
#	162960
#	179147
#	190090
#	209412
#	224087
#	238542
#
# Disc length: 3396 seconds
#
# Revision: 1
# Processed by: cddbd v1.5.1PL0 Copyright (c) Steve Scherf et al.
# Submitted via: audiograbber 1.83.01
#
DISCID=050d4210
DTITLE=Kris Kristofferson - The Man And His Songs
DYEAR=1900
DGENRE=
TTITLE0=Me and Bobby McGee
TTITLE1=Why Me Lord
TTITLE2=To Beat The Devil
TTITLE3=Jody and The Kid
TTITLE4=Help Me Make It Through The Night
TTITLE5=Loving Her Was Easier
TTITLE6=You Show Me Yours And I'll Show You Mine
TTITLE7=Stranger
TTITLE8=Sunday Morning Coming Down
TTITLE9=For The Good Times
TTITLE10=Border Lord
TTITLE11=Jesus was A Capricorn
TTITLE12=The Silver Tongued Devil And I
TTITLE13=The Taker
TTITLE14=Josie
TTITLE15=I've Got A Life Of My Own
EXTD=
EXTT0=
EXTT1=
EXTT2=
EXTT3=
EXTT4=
EXTT5=
EXTT6=
EXTT7=
EXTT8=
EXTT9=
EXTT10=
EXTT11=
EXTT12=
EXTT13=
EXTT14=
EXTT15=
PLAYORDER=
